<?xml version="1.0" encoding="UTF-8" standalone="no"?><!DOCTYPE svg PUBLIC "-//W3C//DTD SVG 1.1//EN" "http://www.w3.org/Graphics/SVG/1.1/DTD/svg11.dtd"><svg width="100%" height="100%" viewBox="0 0 201 128" version="1.1" xmlns="http://www.w3.org/2000/svg" xmlns:xlink="http://www.w3.org/1999/xlink" xml:space="preserve" xmlns:serif="http://www.serif.com/" style="fill-rule:evenodd;clip-rule:evenodd;stroke-linejoin:round;stroke-miterlimit:2;"><rect id="Artboard1" x="0" y="0" width="200.383" height="127.878" style="fill:none;"/><g><path d="M57.42,24.461l9.738,-11.158l10.71,11.158l-20.448,0Z" style="fill:#d3ecec;"/><path d="M77.946,28.573l9.738,-11.159l10.71,11.159l-20.448,-0Z" style="fill:#d3ecec;"/><path d="M99.821,24.761l9.738,-11.159l10.71,11.159l-20.448,0Z" style="fill:#d3ecec;"/><path d="M45.761,38.322l10.522,-4.462l-0.698,7.647l-9.824,-3.185Z" style="fill:#d3ecec;"/><path d="M131.845,36.772l-10.078,5.39l0.008,-7.679l10.07,2.289Z" style="fill:#d3ecec;"/><path d="M47.614,40.102l40.968,15.886l0.046,10.075l-42.848,-0.966l1.834,-24.995Zm9.806,-15.641l8.775,0.947l-0.039,20.823l-9.27,-3.944l0.534,-17.826Zm21.693,4.526l8.775,0.947l0.694,24.439l-9.27,-3.944l-0.199,-21.442Zm21.676,-3.76l8.775,0.947l0.438,20.057l-10.497,5.089l1.284,-26.093Z" style="fill:#23a3c2;"/><path d="M98.936,51.522l-8.956,2.156l-1.398,-24.817l9.399,-0.082l0.955,22.743Zm-8.956,3.18l41.127,-14.6l0.791,25.961l-41.794,-0l-0.124,-11.361Zm19.662,-29.68l10.07,0.386l0.35,17.082l-10.42,3.875l0,-21.343Zm-42.484,0l9.508,0l1.076,25.964l-10.584,-4.621l-0,-21.343Z" style="fill:#34bbde;"/><path d="M133.458,36.117l0,30.381l-5.169,0l0,-23.881l-37.123,13.973l0,9.908l-5.168,0l-0,-9.907l-37.124,-13.974l-0,23.881l-5.168,0l-0,-30.381l0.097,0.036l10.848,-4.11l-0,-7.908l12.465,-13.989l12.087,13.564l0.322,0.361l9,-10.101l9.071,10.179l-0,-0.014l12.466,-13.989l12.087,13.564l0.379,0.425l0,7.9l10.85,4.112l0.08,-0.03Zm-74.701,-9.708l-0,15.373l6.665,2.509l0,-17.882l-6.665,-0Zm10.087,-0l0,19.17l6.632,2.496l0,-21.666l-6.632,-0Zm32.859,-0l0,21.66l6.665,-2.508l-0,-19.152l-6.665,-0Zm-32.381,-8.137l-4.467,0.063l-4.765,5.347l14.053,-0l-4.821,-5.41Zm42.467,8.137l0,17.863l6.632,-2.496l-0,-15.367l-6.632,-0Zm-31.623,3.824l-0,19.607l6.665,2.51l0,-22.117l-6.665,-0Zm10.564,-8.137l-4.467,0.063l-4.764,5.347l14.053,0l-4.822,-5.41Zm21.536,-3.824l-4.467,0.063l-4.764,5.347l14.054,-0l-4.823,-5.41Zm-22.012,11.961l-0,22.147l6.631,-2.497l-0,-19.65l-6.631,-0Zm32.273,5.877l-0,4.12l5.868,-2.208l-5.868,-1.912Zm-67.876,0.007l-5.867,1.911l5.867,2.209l-0,-4.12Z" style="fill:#364548;"/></g><path d="M140.981,61.83c4.004,-0 8.123,-0.714 11.915,-1.999c1.864,-0.632 3.955,-1.511 5.793,-2.617c-2.421,-3.16 -3.657,-7.152 -4.021,-11.086c-0.494,-5.35 0.586,-12.315 4.207,-16.503l1.803,-2.085l2.148,1.727c5.409,4.345 9.957,10.417 10.759,17.339c6.512,-1.916 14.158,-1.463 19.898,1.85l2.355,1.359l-1.239,2.419c-4.855,9.475 -15.004,12.41 -24.926,11.891c-14.848,36.981 -47.174,54.489 -86.368,54.489c-20.249,0 -38.828,-7.569 -49.407,-25.535l-0.173,-0.293l-1.542,-3.136c-3.576,-7.908 -4.764,-16.572 -3.958,-25.228l0.242,-2.592" style="fill:#364548;"/><path d="M170.722,50.784c1.15,-8.937 -5.538,-15.956 -9.685,-19.289c-4.78,5.526 -5.523,20.008 1.976,26.106c-4.185,3.717 -13.003,7.086 -22.032,7.086l-109.909,0c-0.878,9.425 0.777,18.105 4.556,25.534l1.251,2.287c0.791,1.343 1.656,2.64 2.591,3.888l0,0c4.519,0.29 8.685,0.391 12.496,0.306l0.002,0c7.49,-0.165 13.602,-1.049 18.234,-2.654c0.689,-0.24 1.441,0.126 1.68,0.815c0.238,0.689 -0.127,1.441 -0.816,1.68c-0.616,0.213 -1.258,0.412 -1.921,0.602c-0.001,0 -0.002,0 -0.002,0.001c-3.648,1.041 -7.558,1.742 -12.605,2.053c0.3,0.005 -0.312,0.045 -0.313,0.046c-0.172,0.01 -0.388,0.035 -0.56,0.044c-1.986,0.111 -4.13,0.135 -6.321,0.135c-2.397,-0 -4.758,-0.046 -7.397,-0.179l-0.067,0.044c9.157,10.293 23.476,16.466 41.425,16.466c37.986,0 70.206,-16.839 84.474,-54.643c10.122,1.039 19.85,-1.542 24.276,-10.181c-7.049,-4.067 -16.113,-2.77 -21.333,-0.147" style="fill:#22a0c8;"/><path d="M170.722,50.784c1.15,-8.937 -5.538,-15.956 -9.685,-19.289c-4.78,5.526 -5.523,20.008 1.976,26.106c-4.185,3.717 -13.003,7.086 -22.032,7.086l-103.4,0c-0.449,14.435 4.908,25.391 14.385,32.015l0.002,0c7.49,-0.165 13.602,-1.049 18.234,-2.654c0.689,-0.24 1.441,0.126 1.68,0.815c0.238,0.689 -0.127,1.441 -0.816,1.68c-0.616,0.213 -1.258,0.412 -1.921,0.602c-0.001,0 -0.002,0 -0.002,0.001c-3.648,1.041 -7.895,1.832 -12.941,2.143c-0.001,0 -0.122,-0.117 -0.123,-0.116c12.927,6.631 31.672,6.607 53.163,-1.648c24.098,-9.258 46.522,-26.895 62.168,-47.068c-0.236,0.106 -0.466,0.216 -0.688,0.327" style="fill:#37b1d9;"/><path d="M31.278,76.139c0.683,5.048 2.16,9.776 4.35,14.082l1.251,2.287c0.791,1.343 1.656,2.64 2.591,3.888c4.519,0.29 8.686,0.391 12.498,0.306c7.49,-0.165 13.602,-1.049 18.234,-2.654c0.689,-0.24 1.441,0.126 1.68,0.815c0.238,0.689 -0.127,1.441 -0.816,1.68c-0.616,0.213 -1.258,0.412 -1.921,0.602c-0.001,0 -0.002,0 -0.002,0.001c-3.648,1.041 -7.872,1.787 -12.918,2.099c-0.173,0.01 -0.475,0.012 -0.65,0.022c-1.985,0.111 -4.107,0.179 -6.299,0.179c-2.396,0 -4.847,-0.046 -7.485,-0.179c9.157,10.293 23.565,16.488 41.514,16.488c32.52,0 60.813,-12.343 77.234,-39.616l-129.261,-0" style="fill:#1b81a5;"/><path d="M38.57,76.139c1.944,8.864 6.616,15.824 13.398,20.563c7.49,-0.165 13.602,-1.049 18.234,-2.654c0.689,-0.24 1.441,0.126 1.68,0.815c0.238,0.689 -0.127,1.441 -0.816,1.68c-0.616,0.213 -1.258,0.412 -1.921,0.602c-0.001,0 -0.002,0 -0.002,0.001c-3.648,1.041 -7.962,1.787 -13.008,2.099c12.927,6.63 31.618,6.534 53.107,-1.72c13.001,-4.995 25.513,-12.431 36.739,-21.386l-107.411,-0" style="fill:#1d91b4;"/><path d="M77.072,86.118c2.265,-0 4.1,1.836 4.1,4.101c0,2.264 -1.835,4.099 -4.1,4.099c-2.264,0 -4.1,-1.835 -4.1,-4.099c-0,-2.265 1.836,-4.101 4.1,-4.101" style="fill:#d3ecec;"/><path d="M77.072,87.281c0.376,0 0.733,0.071 1.064,0.199c-0.358,0.207 -0.6,0.594 -0.6,1.038c-0,0.662 0.536,1.198 1.198,1.198c0.454,-0 0.848,-0.252 1.051,-0.624c0.144,0.347 0.224,0.727 0.224,1.127c0,1.621 -1.315,2.936 -2.937,2.936c-1.621,-0 -2.937,-1.315 -2.937,-2.936c0,-1.623 1.316,-2.938 2.937,-2.938" style="fill:#364548;"/><path d="M4.545,77.621l190.745,-0c-4.153,-1.054 -13.141,-2.477 -11.658,-7.92c-7.552,8.739 -25.765,6.131 -30.361,1.822c-5.119,7.423 -34.916,4.602 -36.994,-1.182c-6.417,7.531 -26.301,7.531 -32.718,0c-2.079,5.784 -31.876,8.605 -36.995,1.182c-4.596,4.309 -22.807,6.917 -30.36,-1.822c1.482,5.443 -7.505,6.866 -11.659,7.92" style="fill:#364548;"/><path d="M87.973,115.667c-10.155,-4.819 -15.729,-11.37 -18.83,-18.521c-3.772,1.077 -8.307,1.765 -13.575,2.06c-1.985,0.112 -4.072,0.169 -6.263,0.169c-2.526,-0 -5.188,-0.075 -7.982,-0.223c9.313,9.307 20.769,16.472 41.982,16.603c1.566,0 3.121,-0.03 4.668,-0.088" style="fill:#bdd9d7;"/><path d="M72.915,103.745c-1.405,-1.908 -2.768,-4.304 -3.77,-6.6c-3.773,1.077 -8.308,1.766 -13.577,2.061c3.619,1.965 8.795,3.785 17.347,4.539" style="fill:#d3ecec;"/></svg>